<mxfile host="app.diagrams.net" modified="2023-07-27T03:27:59.363Z" agent="Mozilla/5.0 (Macintosh; Intel Mac OS X 10_15_7) AppleWebKit/537.36 (KHTML, like Gecko) Chrome/114.0.0.0 Safari/537.36" version="21.4.0" etag="rZoQ0YKdylJF7LYJwxAS" type="github">
  <diagram name="第 1 页" id="0FOVz5G-8v3PjN_Gmu7_">
    <mxGraphModel>
      <root>
        <mxCell id="0" />
        <mxCell id="1" parent="0" />
      </root>
    </mxGraphModel>
  </diagram>
</mxfile>
